<svg xmlns="http://www.w3.org/2000/svg" xmlns:xlink="http://www.w3.org/1999/xlink" viewBox="0 0 52 80" version="1.1" x="0px" y="0px"><title>castle_tower_open</title><desc>Created with Sketch.</desc><g stroke="none" stroke-width="1" fill="none" fill-rule="evenodd"><g transform="translate(-424.000000, -418.000000)" fill="#000000"><g transform="translate(424.000000, 418.000000)"><path d="M50,22 C51.1045695,22 52,21.1045695 52,20 L52,2 C52,0.8954305 51.1045695,0 50,0 L41,0 C39.8954305,0 39,0.8954305 39,2 L39,8 L34,8 L34,2 C34,0.8954305 33.1045695,0 32,0 L20,0 C18.8954305,0 18,0.8954305 18,2 L18,8 L13,8 L13,2 C13,0.8954305 12.1045695,0 11,0 L2,0 C0.8954305,0 0,0.8954305 0,2 L0,20 C0,21.1045695 0.8954305,22 2,22 L50,22 Z M4,18 L4,4 L9,4 L9,10 C9,11.1045695 9.8954305,12 11,12 L20,12 C21.1045695,12 22,11.1045695 22,10 L22,4 L30,4 L30,10 C30,11.1045695 30.8954305,12 32,12 L41,12 C42.1045695,12 43,11.1045695 43,10 L43,4 L48,4 L48,10 L48,18 L4,18 Z"/><path d="M17,41.9999892 C17,37.5819701 20.5828623,34 25.0021973,34 L26.9978027,34 C31.4181657,34 35,37.5805359 35,41.9999892 L35,62 C35,63.1045695 35.8954305,64 37,64 C38.1045695,64 39,63.1045695 39,62 L39,41.9999892 C39,35.3710722 33.6269801,30 26.9978027,30 L25.0021973,30 C18.3739463,30 13,35.372608 13,41.9999892 L13,62 C13,63.1045695 13.8954305,64 15,64 C16.1045695,64 17,63.1045695 17,62 L17,41.9999892 Z"/><path d="M39,60 L39,41.9999892 C39,39.0636188 40.5826927,36.4965646 42.9417499,35.1050171 C44.132095,34.4028629 45.0021973,34.2000122 45.0021973,34.2000122 L45.0021973,60 L39,60 Z M49.0021973,62 L49.0021973,32 C49.0021973,30.8954305 48.1067668,30 47.0021973,30 C40.3739463,30 35,35.372608 35,41.9999892 L35,62 C35,63.1045695 35.8954305,64 37,64 L47.0021973,64 C48.1067668,64 49.0021973,63.1045695 49.0021973,62 Z"/><path d="M48.2278812,42.5787044 C49.0997756,41.9005644 49.2568445,40.6440132 48.5787044,39.7721188 C47.9005644,38.9002244 46.6440132,38.7431555 45.7721188,39.4212956 L36.7721188,46.4212956 C35.9002244,47.0994356 35.7431555,48.3559868 36.4212956,49.2278812 C37.0994356,50.0997756 38.3559868,50.2568445 39.2278812,49.5787044 L48.2278812,42.5787044 Z"/><path d="M48.2278812,52.5787044 C49.0997756,51.9005644 49.2568445,50.6440132 48.5787044,49.7721188 C47.9005644,48.9002244 46.6440132,48.7431555 45.7721188,49.4212956 L36.7721188,56.4212956 C35.9002244,57.0994356 35.7431555,58.3559868 36.4212956,59.2278812 C37.0994356,60.0997756 38.3559868,60.2568445 39.2278812,59.5787044 L48.2278812,52.5787044 Z"/><path d="M15.0021973,64 C16.1067668,64 17.0021973,63.1045695 17.0021973,62 L17.0021973,41.9999892 C17.0021973,35.372608 11.628251,30 5,30 C3.8954305,30 3,30.8954305 3,32 L3,62 C3,63.1045695 3.8954305,64 5,64 L15.0021973,64 Z M7,60 L7,34.247257 C10.4426134,35.1288657 13.0021973,38.2657922 13.0021973,41.9999892 L13.0021973,60 L7,60 Z"/><path d="M42,32 C42,33.1045695 42.8954305,34 44,34 C45.1045695,34 46,33.1045695 46,32 L46,20 C46,18.8954305 45.1045695,18 44,18 C42.8954305,18 42,18.8954305 42,20 L42,32 Z"/><path d="M10,20 C10,18.8954305 9.1045695,18 8,18 C6.8954305,18 6,18.8954305 6,20 L6,32 C6,33.1045695 6.8954305,34 8,34 C9.1045695,34 10,33.1045695 10,32 L10,20 Z"/><path d="M7.22788123,39.4212956 C6.35598684,38.7431555 5.09943564,38.9002244 4.42129557,39.7721188 C3.74315549,40.6440132 3.90022439,41.9005644 4.77211877,42.5787044 L13.7721188,49.5787044 C14.6440132,50.2568445 15.9005644,50.0997756 16.5787044,49.2278812 C17.2568445,48.3559868 17.0997756,47.0994356 16.2278812,46.4212956 L7.22788123,39.4212956 Z"/><path d="M7.22788123,49.4212956 C6.35598684,48.7431555 5.09943564,48.9002244 4.42129557,49.7721188 C3.74315549,50.6440132 3.90022439,51.9005644 4.77211877,52.5787044 L13.7721188,59.5787044 C14.6440132,60.2568445 15.9005644,60.0997756 16.5787044,59.2278812 C17.2568445,58.3559868 17.0997756,57.0994356 16.2278812,56.4212956 L7.22788123,49.4212956 Z"/></g></g></g><text x="0" y="79" fill="#000000" font-size="5px" font-weight="bold" font-family="'Helvetica Neue', Helvetica, Arial-Unicode, Arial, Sans-serif">Created by Andrejs Kirma</text><text x="0" y="84" fill="#000000" font-size="5px" font-weight="bold" font-family="'Helvetica Neue', Helvetica, Arial-Unicode, Arial, Sans-serif">from the Noun Project</text></svg>